<svg id="Layer_1" enable-background="new 0 0 128 128" height="512" viewBox="0 0 128 128" width="512" xmlns="http://www.w3.org/2000/svg"><path d="m47.9 28.8c-1 0-1.8-.8-1.8-1.7 0-.7.4-1.3 1-1.6l16.1-7.1c.9-.4 1.9 0 2.3.9s0 1.9-.9 2.3l-16.1 7.1c-.1.1-.4.1-.6.1z" fill="#e7e6e4"/><path d="m64 58c-.2 0-.5-.1-.7-.2l-16.1-7.1c-.9-.4-1.3-1.4-.9-2.3s1.4-1.3 2.3-.9l16.1 7.1c.9.4 1.3 1.4.9 2.3-.3.7-.9 1.1-1.6 1.1z" fill="#e7e6e4"/><path d="m41.9 6.5h6v115h-6z" fill="#c9c8c6"/><path d="m121.5 52.4-57.5 5.6v-39.8l57.5 5.6z" fill="#72bdf6"/><path d="m102.3 22v32.2l-19.1 1.9v-36z" fill="#45aeef"/><path d="m121.5 123.3h-115c-1 0-1.8-.8-1.8-1.8s.8-1.8 1.8-1.8h115c1 0 1.8.8 1.8 1.8s-.8 1.8-1.8 1.8z" fill="#e7e6e4"/><path d="m52.4 8.3h-15c-1 0-1.8-.8-1.8-1.8s.8-1.8 1.8-1.8h15c1 0 1.8.8 1.8 1.8s-.8 1.8-1.8 1.8z" fill="#72bdf6"/></svg>